# xmcd
#
# Track frame offsets: 
#        150
#        9753
#        27399
#        46741
#        58645
#        77575
#        102328
#        117439
#        137825
#        165785
#
# Disc length: 2429 seconds
#
# Revision: 2
# Processed by: cddbd v1.5.2PL0 Copyright (c) Steve Scherf et al.
# Submitted via: ExactAudioCopyFreeDBPlugin 1.0
#
DISCID=6e097b0a
DTITLE=Jools Holland , Ruby Turner and the R&B Orchestra - Consider The 
DTITLE=Source Cd2
DYEAR=2008
DGENRE=Rhythm and Blues
TTITLE0=Rock Me (live)
TTITLE1=Precious Lord (live)
TTITLE2=Seven Acts Of Mercy (live)
TTITLE3=Consider The Source (live)
TTITLE4=Where In The World (live)
TTITLE5=A Change Is Gonna Come (live)
TTITLE6=Peace In The Valley (live)
TTITLE7=Kyrie (live)
TTITLE8=Sanctus (live)
TTITLE9=Up Above My Head (live)
EXTD=
EXTT0=
EXTT1=
EXTT2=
EXTT3=
EXTT4=
EXTT5=
EXTT6=
EXTT7=
EXTT8=
EXTT9=
PLAYORDER=
